<svg width="250" height="167" viewBox="0 0 250 167" fill="none" xmlns="http://www.w3.org/2000/svg">
<rect x="78" width="94" height="94" rx="47" fill="#D8DAFD"/>
<path d="M118.867 28.6945C117.381 27.9786 115.751 27.867 114.267 28.1383L110.961 28.7465C109.768 28.9661 108.642 29.4451 107.67 30.1467C106.698 30.8484 105.905 31.7543 105.352 32.7955C101.524 40.0179 98.6301 45.9337 97.5122 50.9776C96.3603 56.1794 97.0623 60.6326 100.528 64.6893C102.828 67.3816 106.781 66.837 108.837 64.5931C110.564 62.702 112.279 60.8013 113.983 58.8909C114.548 58.2563 115.249 57.7467 116.037 57.3969C116.826 57.0472 117.684 56.8656 118.553 56.8645H131.449C133.203 56.8645 134.869 57.6035 136.017 58.889C137.777 60.8577 139.581 62.863 141.163 64.5892C143.219 66.835 147.172 67.3797 149.472 64.6854C152.938 60.6306 153.64 56.1775 152.488 50.9757C151.37 45.9317 148.478 40.0179 144.648 32.7936C144.095 31.7524 143.302 30.8465 142.33 30.1448C141.358 29.4431 140.232 28.9642 139.039 28.7445L135.735 28.1364C134.249 27.8631 132.619 27.9767 131.136 28.6945C130.844 28.8331 130.55 28.9812 130.252 29.1333C129.3 29.6374 128.234 29.9083 127.148 29.9223H122.852C121.766 29.9083 120.7 29.6374 119.748 29.1333C119.45 28.9793 119.156 28.8331 118.867 28.6926V28.6945ZM125.006 43.3934C124.612 43.3934 124.222 43.3187 123.858 43.1737C123.494 43.0286 123.163 42.816 122.885 42.5479C122.606 42.2799 122.385 41.9616 122.235 41.6114C122.084 41.2612 122.006 40.8858 122.006 40.5067C122.006 40.1276 122.084 39.7523 122.235 39.402C122.385 39.0518 122.606 38.7336 122.885 38.4655C123.163 38.1975 123.494 37.9849 123.858 37.8398C124.222 37.6947 124.612 37.6201 125.006 37.6201C125.802 37.6201 126.565 37.9242 127.127 38.4655C127.69 39.0069 128.006 39.7411 128.006 40.5067C128.006 41.2723 127.69 42.0066 127.127 42.5479C126.565 43.0893 125.802 43.3934 125.006 43.3934Z" fill="#3B44F6"/>
<path d="M33.4841 136.14C32.5107 136.14 31.6307 135.933 30.8441 135.52C30.0574 135.093 29.4041 134.48 28.8841 133.68L30.3241 132.12C30.9107 132.773 31.4374 133.227 31.9041 133.48C32.3707 133.72 32.8841 133.84 33.4441 133.84C33.9507 133.84 34.4041 133.733 34.8041 133.52C35.2041 133.293 35.5241 132.993 35.7641 132.62C36.0041 132.233 36.1241 131.813 36.1241 131.36C36.1241 130.867 36.0107 130.433 35.7841 130.06C35.5574 129.673 35.2507 129.367 34.8641 129.14C34.4774 128.913 34.0374 128.8 33.5441 128.8C33.2774 128.8 33.0241 128.82 32.7841 128.86C32.5441 128.9 32.2641 128.98 31.9441 129.1C31.6374 129.22 31.2441 129.407 30.7641 129.66L29.5241 127.98L30.3441 121.96H38.0841V124.26H31.8041L32.3841 123.62L31.7241 128.06L30.9841 127.54C31.1574 127.38 31.4107 127.227 31.7441 127.08C32.0907 126.933 32.4641 126.813 32.8641 126.72C33.2641 126.627 33.6574 126.58 34.0441 126.58C34.9107 126.58 35.6841 126.78 36.3641 127.18C37.0441 127.58 37.5841 128.133 37.9841 128.84C38.3841 129.533 38.5841 130.333 38.5841 131.24C38.5841 132.16 38.3574 132.993 37.9041 133.74C37.4641 134.473 36.8574 135.06 36.0841 135.5C35.3107 135.927 34.4441 136.14 33.4841 136.14ZM46.0266 136.2C44.8932 136.2 43.9199 135.913 43.1066 135.34C42.3066 134.753 41.6866 133.927 41.2466 132.86C40.8199 131.78 40.6066 130.493 40.6066 129C40.6066 127.507 40.8199 126.227 41.2466 125.16C41.6866 124.08 42.3066 123.253 43.1066 122.68C43.9199 122.093 44.8932 121.8 46.0266 121.8C47.1599 121.8 48.1332 122.093 48.9466 122.68C49.7599 123.253 50.3799 124.08 50.8066 125.16C51.2466 126.227 51.4666 127.507 51.4666 129C51.4666 130.493 51.2466 131.78 50.8066 132.86C50.3799 133.927 49.7599 134.753 48.9466 135.34C48.1332 135.913 47.1599 136.2 46.0266 136.2ZM46.0266 133.92C46.9599 133.92 47.6799 133.493 48.1866 132.64C48.7066 131.773 48.9666 130.56 48.9666 129C48.9666 127.427 48.7066 126.207 48.1866 125.34C47.6799 124.473 46.9599 124.04 46.0266 124.04C45.0932 124.04 44.3666 124.473 43.8466 125.34C43.3399 126.207 43.0866 127.427 43.0866 129C43.0866 130.56 43.3399 131.773 43.8466 132.64C44.3666 133.493 45.0932 133.92 46.0266 133.92ZM58.6438 136.2C57.5104 136.2 56.5371 135.913 55.7238 135.34C54.9238 134.753 54.3038 133.927 53.8638 132.86C53.4371 131.78 53.2238 130.493 53.2238 129C53.2238 127.507 53.4371 126.227 53.8638 125.16C54.3038 124.08 54.9238 123.253 55.7238 122.68C56.5371 122.093 57.5104 121.8 58.6438 121.8C59.7771 121.8 60.7504 122.093 61.5638 122.68C62.3771 123.253 62.9971 124.08 63.4238 125.16C63.8638 126.227 64.0838 127.507 64.0838 129C64.0838 130.493 63.8638 131.78 63.4238 132.86C62.9971 133.927 62.3771 134.753 61.5638 135.34C60.7504 135.913 59.7771 136.2 58.6438 136.2ZM58.6438 133.92C59.5771 133.92 60.2971 133.493 60.8038 132.64C61.3238 131.773 61.5838 130.56 61.5838 129C61.5838 127.427 61.3238 126.207 60.8038 125.34C60.2971 124.473 59.5771 124.04 58.6438 124.04C57.7104 124.04 56.9838 124.473 56.4638 125.34C55.9571 126.207 55.7038 127.427 55.7038 129C55.7038 130.56 55.9571 131.773 56.4638 132.64C56.9838 133.493 57.7104 133.92 58.6438 133.92ZM71.2609 136.2C70.1276 136.2 69.1543 135.913 68.3409 135.34C67.5409 134.753 66.9209 133.927 66.4809 132.86C66.0543 131.78 65.8409 130.493 65.8409 129C65.8409 127.507 66.0543 126.227 66.4809 125.16C66.9209 124.08 67.5409 123.253 68.3409 122.68C69.1543 122.093 70.1276 121.8 71.2609 121.8C72.3943 121.8 73.3676 122.093 74.1809 122.68C74.9943 123.253 75.6143 124.08 76.0409 125.16C76.4809 126.227 76.7009 127.507 76.7009 129C76.7009 130.493 76.4809 131.78 76.0409 132.86C75.6143 133.927 74.9943 134.753 74.1809 135.34C73.3676 135.913 72.3943 136.2 71.2609 136.2ZM71.2609 133.92C72.1943 133.92 72.9143 133.493 73.4209 132.64C73.9409 131.773 74.2009 130.56 74.2009 129C74.2009 127.427 73.9409 126.207 73.4209 125.34C72.9143 124.473 72.1943 124.04 71.2609 124.04C70.3276 124.04 69.6009 124.473 69.0809 125.34C68.5743 126.207 68.3209 127.427 68.3209 129C68.3209 130.56 68.5743 131.773 69.0809 132.64C69.6009 133.493 70.3276 133.92 71.2609 133.92ZM78.4981 131.42V129.34H88.5181V131.42H78.4981ZM82.3181 135.18V125.48H84.6781V135.18H82.3181ZM100.133 136L95.6925 125.46H98.3725L101.373 133.34L100.853 133.48L104.013 125.46H106.633L101.973 136H100.133ZM108.712 136V125.46H111.172V136H108.712ZM109.912 123.22C109.419 123.22 109.032 123.1 108.752 122.86C108.486 122.607 108.352 122.253 108.352 121.8C108.352 121.373 108.492 121.027 108.772 120.76C109.052 120.493 109.432 120.36 109.912 120.36C110.419 120.36 110.806 120.487 111.072 120.74C111.352 120.98 111.492 121.333 111.492 121.8C111.492 122.213 111.352 122.553 111.072 122.82C110.792 123.087 110.406 123.22 109.912 123.22ZM118.532 136.2C117.598 136.2 116.758 135.967 116.012 135.5C115.278 135.02 114.692 134.373 114.252 133.56C113.825 132.733 113.612 131.787 113.612 130.72C113.612 129.667 113.825 128.727 114.252 127.9C114.678 127.073 115.258 126.427 115.992 125.96C116.738 125.48 117.578 125.24 118.512 125.24C119.018 125.24 119.505 125.32 119.972 125.48C120.452 125.64 120.878 125.86 121.252 126.14C121.625 126.407 121.918 126.707 122.132 127.04C122.358 127.373 122.485 127.72 122.512 128.08L121.852 128.16V121.2H124.312V136H121.932L121.872 133.52L122.352 133.56C122.338 133.893 122.218 134.213 121.992 134.52C121.778 134.827 121.498 135.107 121.152 135.36C120.805 135.613 120.398 135.82 119.932 135.98C119.478 136.127 119.012 136.2 118.532 136.2ZM119.012 134.12C119.585 134.12 120.092 133.973 120.532 133.68C120.972 133.387 121.312 132.987 121.552 132.48C121.805 131.973 121.932 131.387 121.932 130.72C121.932 130.067 121.805 129.487 121.552 128.98C121.312 128.46 120.972 128.06 120.532 127.78C120.092 127.487 119.585 127.34 119.012 127.34C118.438 127.34 117.932 127.487 117.492 127.78C117.052 128.06 116.705 128.46 116.452 128.98C116.212 129.487 116.092 130.067 116.092 130.72C116.092 131.387 116.212 131.973 116.452 132.48C116.705 132.987 117.052 133.387 117.492 133.68C117.932 133.973 118.438 134.12 119.012 134.12ZM132.044 136.2C130.937 136.2 129.957 135.967 129.104 135.5C128.264 135.033 127.604 134.4 127.124 133.6C126.657 132.787 126.424 131.86 126.424 130.82C126.424 129.993 126.557 129.24 126.824 128.56C127.091 127.88 127.457 127.293 127.924 126.8C128.404 126.293 128.971 125.907 129.624 125.64C130.291 125.36 131.017 125.22 131.804 125.22C132.497 125.22 133.144 125.353 133.744 125.62C134.344 125.887 134.864 126.253 135.304 126.72C135.744 127.173 136.077 127.72 136.304 128.36C136.544 128.987 136.657 129.673 136.644 130.42L136.624 131.28H128.084L127.624 129.6H134.564L134.244 129.94V129.5C134.204 129.087 134.071 128.727 133.844 128.42C133.617 128.1 133.324 127.853 132.964 127.68C132.617 127.493 132.231 127.4 131.804 127.4C131.151 127.4 130.597 127.527 130.144 127.78C129.704 128.033 129.371 128.4 129.144 128.88C128.917 129.347 128.804 129.933 128.804 130.64C128.804 131.32 128.944 131.913 129.224 132.42C129.517 132.927 129.924 133.32 130.444 133.6C130.977 133.867 131.597 134 132.304 134C132.797 134 133.251 133.92 133.664 133.76C134.077 133.6 134.524 133.313 135.004 132.9L136.224 134.6C135.864 134.933 135.451 135.22 134.984 135.46C134.531 135.687 134.051 135.867 133.544 136C133.037 136.133 132.537 136.2 132.044 136.2ZM143.643 136.2C142.589 136.2 141.649 135.967 140.823 135.5C139.996 135.02 139.343 134.367 138.863 133.54C138.383 132.713 138.143 131.773 138.143 130.72C138.143 129.667 138.383 128.727 138.863 127.9C139.343 127.073 139.996 126.427 140.823 125.96C141.649 125.48 142.589 125.24 143.643 125.24C144.683 125.24 145.616 125.48 146.443 125.96C147.269 126.427 147.916 127.073 148.383 127.9C148.863 128.727 149.103 129.667 149.103 130.72C149.103 131.773 148.863 132.713 148.383 133.54C147.916 134.367 147.269 135.02 146.443 135.5C145.616 135.967 144.683 136.2 143.643 136.2ZM143.643 134.02C144.216 134.02 144.723 133.873 145.163 133.58C145.616 133.287 145.969 132.893 146.223 132.4C146.489 131.907 146.616 131.347 146.603 130.72C146.616 130.08 146.489 129.513 146.223 129.02C145.969 128.527 145.616 128.14 145.163 127.86C144.723 127.567 144.216 127.42 143.643 127.42C143.069 127.42 142.549 127.567 142.083 127.86C141.629 128.14 141.276 128.533 141.023 129.04C140.769 129.533 140.643 130.093 140.643 130.72C140.643 131.347 140.769 131.907 141.023 132.4C141.276 132.893 141.629 133.287 142.083 133.58C142.549 133.873 143.069 134.02 143.643 134.02ZM161.922 140.6C161.136 140.6 160.349 140.48 159.562 140.24C158.789 140 158.162 139.687 157.682 139.3L158.562 137.48C158.842 137.68 159.156 137.853 159.502 138C159.849 138.147 160.216 138.26 160.602 138.34C161.002 138.42 161.396 138.46 161.782 138.46C162.489 138.46 163.076 138.347 163.542 138.12C164.022 137.907 164.382 137.573 164.622 137.12C164.862 136.68 164.982 136.127 164.982 135.46V133.52L165.342 133.66C165.262 134.073 165.042 134.467 164.682 134.84C164.322 135.213 163.869 135.52 163.322 135.76C162.776 135.987 162.216 136.1 161.642 136.1C160.642 136.1 159.756 135.867 158.982 135.4C158.222 134.933 157.616 134.3 157.162 133.5C156.722 132.687 156.502 131.753 156.502 130.7C156.502 129.647 156.722 128.713 157.162 127.9C157.602 127.073 158.202 126.427 158.962 125.96C159.736 125.48 160.602 125.24 161.562 125.24C161.962 125.24 162.349 125.287 162.722 125.38C163.096 125.473 163.436 125.607 163.742 125.78C164.062 125.953 164.349 126.147 164.602 126.36C164.856 126.573 165.062 126.8 165.222 127.04C165.382 127.28 165.482 127.513 165.522 127.74L165.002 127.9L165.042 125.46H167.462V135.28C167.462 136.133 167.336 136.887 167.082 137.54C166.829 138.193 166.462 138.747 165.982 139.2C165.502 139.667 164.922 140.013 164.242 140.24C163.562 140.48 162.789 140.6 161.922 140.6ZM162.022 134C162.622 134 163.149 133.86 163.602 133.58C164.069 133.3 164.429 132.913 164.682 132.42C164.936 131.927 165.062 131.36 165.062 130.72C165.062 130.067 164.929 129.493 164.662 129C164.409 128.493 164.056 128.1 163.602 127.82C163.149 127.54 162.622 127.4 162.022 127.4C161.422 127.4 160.896 127.547 160.442 127.84C159.989 128.12 159.629 128.513 159.362 129.02C159.109 129.513 158.982 130.08 158.982 130.72C158.982 131.347 159.109 131.913 159.362 132.42C159.629 132.913 159.989 133.3 160.442 133.58C160.896 133.86 161.422 134 162.022 134ZM174.287 136.2C173.421 136.2 172.634 135.96 171.927 135.48C171.221 135 170.654 134.347 170.227 133.52C169.801 132.693 169.587 131.753 169.587 130.7C169.587 129.647 169.801 128.707 170.227 127.88C170.654 127.053 171.234 126.407 171.967 125.94C172.701 125.473 173.527 125.24 174.447 125.24C174.981 125.24 175.467 125.32 175.907 125.48C176.347 125.627 176.734 125.84 177.067 126.12C177.401 126.4 177.674 126.72 177.887 127.08C178.114 127.44 178.267 127.827 178.347 128.24L177.807 128.1V125.46H180.287V136H177.787V133.48L178.367 133.38C178.274 133.74 178.101 134.093 177.847 134.44C177.607 134.773 177.301 135.073 176.927 135.34C176.567 135.593 176.161 135.8 175.707 135.96C175.267 136.12 174.794 136.2 174.287 136.2ZM174.967 134.02C175.541 134.02 176.047 133.88 176.487 133.6C176.927 133.32 177.267 132.933 177.507 132.44C177.761 131.933 177.887 131.353 177.887 130.7C177.887 130.06 177.761 129.493 177.507 129C177.267 128.507 176.927 128.12 176.487 127.84C176.047 127.56 175.541 127.42 174.967 127.42C174.394 127.42 173.887 127.56 173.447 127.84C173.021 128.12 172.687 128.507 172.447 129C172.207 129.493 172.087 130.06 172.087 130.7C172.087 131.353 172.207 131.933 172.447 132.44C172.687 132.933 173.021 133.32 173.447 133.6C173.887 133.88 174.394 134.02 174.967 134.02ZM183.099 136V125.46H185.519L185.559 127.58L185.159 127.74C185.279 127.393 185.459 127.073 185.699 126.78C185.939 126.473 186.226 126.213 186.559 126C186.893 125.773 187.246 125.6 187.619 125.48C187.993 125.347 188.373 125.28 188.759 125.28C189.333 125.28 189.839 125.373 190.279 125.56C190.733 125.733 191.106 126.013 191.399 126.4C191.706 126.787 191.933 127.28 192.079 127.88L191.699 127.8L191.859 127.48C192.006 127.16 192.213 126.873 192.479 126.62C192.746 126.353 193.046 126.12 193.379 125.92C193.713 125.707 194.059 125.547 194.419 125.44C194.793 125.333 195.159 125.28 195.519 125.28C196.319 125.28 196.986 125.44 197.519 125.76C198.053 126.08 198.453 126.567 198.719 127.22C198.986 127.873 199.119 128.68 199.119 129.64V136H196.639V129.8C196.639 129.267 196.566 128.827 196.419 128.48C196.286 128.133 196.073 127.88 195.779 127.72C195.499 127.547 195.146 127.46 194.719 127.46C194.386 127.46 194.066 127.52 193.759 127.64C193.466 127.747 193.213 127.907 192.999 128.12C192.786 128.32 192.619 128.553 192.499 128.82C192.379 129.087 192.319 129.38 192.319 129.7V136H189.839V129.78C189.839 129.273 189.766 128.853 189.619 128.52C189.473 128.173 189.259 127.913 188.979 127.74C188.699 127.553 188.359 127.46 187.959 127.46C187.626 127.46 187.313 127.52 187.019 127.64C186.726 127.747 186.473 127.9 186.259 128.1C186.046 128.3 185.879 128.533 185.759 128.8C185.639 129.067 185.579 129.36 185.579 129.68V136H183.099ZM206.79 136.2C205.683 136.2 204.703 135.967 203.85 135.5C203.01 135.033 202.35 134.4 201.87 133.6C201.403 132.787 201.17 131.86 201.17 130.82C201.17 129.993 201.303 129.24 201.57 128.56C201.837 127.88 202.203 127.293 202.67 126.8C203.15 126.293 203.717 125.907 204.37 125.64C205.037 125.36 205.763 125.22 206.55 125.22C207.243 125.22 207.89 125.353 208.49 125.62C209.09 125.887 209.61 126.253 210.05 126.72C210.49 127.173 210.823 127.72 211.05 128.36C211.29 128.987 211.403 129.673 211.39 130.42L211.37 131.28H202.83L202.37 129.6H209.31L208.99 129.94V129.5C208.95 129.087 208.817 128.727 208.59 128.42C208.363 128.1 208.07 127.853 207.71 127.68C207.363 127.493 206.977 127.4 206.55 127.4C205.897 127.4 205.343 127.527 204.89 127.78C204.45 128.033 204.117 128.4 203.89 128.88C203.663 129.347 203.55 129.933 203.55 130.64C203.55 131.32 203.69 131.913 203.97 132.42C204.263 132.927 204.67 133.32 205.19 133.6C205.723 133.867 206.343 134 207.05 134C207.543 134 207.997 133.92 208.41 133.76C208.823 133.6 209.27 133.313 209.75 132.9L210.97 134.6C210.61 134.933 210.197 135.22 209.73 135.46C209.277 135.687 208.797 135.867 208.29 136C207.783 136.133 207.283 136.2 206.79 136.2ZM217.089 136.2C216.156 136.2 215.316 136.047 214.569 135.74C213.836 135.42 213.236 134.967 212.769 134.38L214.369 133C214.769 133.453 215.216 133.78 215.709 133.98C216.202 134.18 216.722 134.28 217.269 134.28C217.496 134.28 217.696 134.253 217.869 134.2C218.056 134.147 218.216 134.067 218.349 133.96C218.482 133.853 218.582 133.733 218.649 133.6C218.729 133.453 218.769 133.293 218.769 133.12C218.769 132.8 218.649 132.547 218.409 132.36C218.276 132.267 218.062 132.167 217.769 132.06C217.489 131.953 217.122 131.847 216.669 131.74C215.949 131.553 215.349 131.34 214.869 131.1C214.389 130.847 214.016 130.567 213.749 130.26C213.522 130.007 213.349 129.72 213.229 129.4C213.122 129.08 213.069 128.733 213.069 128.36C213.069 127.893 213.169 127.473 213.369 127.1C213.582 126.713 213.869 126.38 214.229 126.1C214.589 125.82 215.009 125.607 215.489 125.46C215.969 125.313 216.469 125.24 216.989 125.24C217.522 125.24 218.036 125.307 218.529 125.44C219.036 125.573 219.502 125.767 219.929 126.02C220.369 126.26 220.742 126.553 221.049 126.9L219.689 128.4C219.436 128.16 219.156 127.947 218.849 127.76C218.556 127.573 218.256 127.427 217.949 127.32C217.642 127.2 217.356 127.14 217.089 127.14C216.836 127.14 216.609 127.167 216.409 127.22C216.209 127.26 216.042 127.327 215.909 127.42C215.776 127.513 215.669 127.633 215.589 127.78C215.522 127.913 215.489 128.073 215.489 128.26C215.502 128.42 215.542 128.573 215.609 128.72C215.689 128.853 215.796 128.967 215.929 129.06C216.076 129.153 216.296 129.26 216.589 129.38C216.882 129.5 217.262 129.613 217.729 129.72C218.382 129.893 218.929 130.087 219.369 130.3C219.809 130.513 220.156 130.76 220.409 131.04C220.662 131.28 220.842 131.56 220.949 131.88C221.056 132.2 221.109 132.553 221.109 132.94C221.109 133.567 220.929 134.127 220.569 134.62C220.222 135.113 219.742 135.5 219.129 135.78C218.529 136.06 217.849 136.2 217.089 136.2ZM85.2149 162.2C84.3483 162.2 83.5616 161.96 82.8549 161.48C82.1483 161 81.5816 160.347 81.1549 159.52C80.7283 158.693 80.5149 157.753 80.5149 156.7C80.5149 155.647 80.7283 154.707 81.1549 153.88C81.5816 153.053 82.1616 152.407 82.8949 151.94C83.6283 151.473 84.4549 151.24 85.3749 151.24C85.9083 151.24 86.3949 151.32 86.8349 151.48C87.2749 151.627 87.6616 151.84 87.9949 152.12C88.3283 152.4 88.6016 152.72 88.8149 153.08C89.0416 153.44 89.1949 153.827 89.2749 154.24L88.7349 154.1V151.46H91.2149V162H88.7149V159.48L89.2949 159.38C89.2016 159.74 89.0283 160.093 88.7749 160.44C88.5349 160.773 88.2283 161.073 87.8549 161.34C87.4949 161.593 87.0883 161.8 86.6349 161.96C86.1949 162.12 85.7216 162.2 85.2149 162.2ZM85.8949 160.02C86.4683 160.02 86.9749 159.88 87.4149 159.6C87.8549 159.32 88.1949 158.933 88.4349 158.44C88.6883 157.933 88.8149 157.353 88.8149 156.7C88.8149 156.06 88.6883 155.493 88.4349 155C88.1949 154.507 87.8549 154.12 87.4149 153.84C86.9749 153.56 86.4683 153.42 85.8949 153.42C85.3216 153.42 84.8149 153.56 84.3749 153.84C83.9483 154.12 83.6149 154.507 83.3749 155C83.1349 155.493 83.0149 156.06 83.0149 156.7C83.0149 157.353 83.1349 157.933 83.3749 158.44C83.6149 158.933 83.9483 159.32 84.3749 159.6C84.8149 159.88 85.3216 160.02 85.8949 160.02ZM97.2126 162L92.7726 151.46H95.4526L98.4526 159.34L97.9326 159.48L101.093 151.46H103.713L99.0526 162H97.2126ZM109.199 162.2C108.333 162.2 107.546 161.96 106.839 161.48C106.133 161 105.566 160.347 105.139 159.52C104.713 158.693 104.499 157.753 104.499 156.7C104.499 155.647 104.713 154.707 105.139 153.88C105.566 153.053 106.146 152.407 106.879 151.94C107.613 151.473 108.439 151.24 109.359 151.24C109.893 151.24 110.379 151.32 110.819 151.48C111.259 151.627 111.646 151.84 111.979 152.12C112.313 152.4 112.586 152.72 112.799 153.08C113.026 153.44 113.179 153.827 113.259 154.24L112.719 154.1V151.46H115.199V162H112.699V159.48L113.279 159.38C113.186 159.74 113.013 160.093 112.759 160.44C112.519 160.773 112.213 161.073 111.839 161.34C111.479 161.593 111.073 161.8 110.619 161.96C110.179 162.12 109.706 162.2 109.199 162.2ZM109.879 160.02C110.453 160.02 110.959 159.88 111.399 159.6C111.839 159.32 112.179 158.933 112.419 158.44C112.673 157.933 112.799 157.353 112.799 156.7C112.799 156.06 112.673 155.493 112.419 155C112.179 154.507 111.839 154.12 111.399 153.84C110.959 153.56 110.453 153.42 109.879 153.42C109.306 153.42 108.799 153.56 108.359 153.84C107.933 154.12 107.599 154.507 107.359 155C107.119 155.493 106.999 156.06 106.999 156.7C106.999 157.353 107.119 157.933 107.359 158.44C107.599 158.933 107.933 159.32 108.359 159.6C108.799 159.88 109.306 160.02 109.879 160.02ZM118.331 162V151.46H120.791V162H118.331ZM119.531 149.22C119.038 149.22 118.651 149.1 118.371 148.86C118.105 148.607 117.971 148.253 117.971 147.8C117.971 147.373 118.111 147.027 118.391 146.76C118.671 146.493 119.051 146.36 119.531 146.36C120.038 146.36 120.425 146.487 120.691 146.74C120.971 146.98 121.111 147.333 121.111 147.8C121.111 148.213 120.971 148.553 120.691 148.82C120.411 149.087 120.025 149.22 119.531 149.22ZM123.931 162V147.2H126.411V162H123.931ZM133.086 162.2C132.219 162.2 131.433 161.96 130.726 161.48C130.019 161 129.453 160.347 129.026 159.52C128.599 158.693 128.386 157.753 128.386 156.7C128.386 155.647 128.599 154.707 129.026 153.88C129.453 153.053 130.033 152.407 130.766 151.94C131.499 151.473 132.326 151.24 133.246 151.24C133.779 151.24 134.266 151.32 134.706 151.48C135.146 151.627 135.533 151.84 135.866 152.12C136.199 152.4 136.473 152.72 136.686 153.08C136.913 153.44 137.066 153.827 137.146 154.24L136.606 154.1V151.46H139.086V162H136.586V159.48L137.166 159.38C137.073 159.74 136.899 160.093 136.646 160.44C136.406 160.773 136.099 161.073 135.726 161.34C135.366 161.593 134.959 161.8 134.506 161.96C134.066 162.12 133.593 162.2 133.086 162.2ZM133.766 160.02C134.339 160.02 134.846 159.88 135.286 159.6C135.726 159.32 136.066 158.933 136.306 158.44C136.559 157.933 136.686 157.353 136.686 156.7C136.686 156.06 136.559 155.493 136.306 155C136.066 154.507 135.726 154.12 135.286 153.84C134.846 153.56 134.339 153.42 133.766 153.42C133.193 153.42 132.686 153.56 132.246 153.84C131.819 154.12 131.486 154.507 131.246 155C131.006 155.493 130.886 156.06 130.886 156.7C130.886 157.353 131.006 157.933 131.246 158.44C131.486 158.933 131.819 159.32 132.246 159.6C132.686 159.88 133.193 160.02 133.766 160.02ZM147.758 162.2C147.291 162.2 146.831 162.133 146.378 162C145.938 161.853 145.538 161.66 145.178 161.42C144.818 161.18 144.518 160.913 144.278 160.62C144.038 160.313 143.878 160.007 143.798 159.7L144.378 159.44L144.318 161.96H141.938V147.2H144.398V153.9L143.958 153.7C144.025 153.38 144.171 153.08 144.398 152.8C144.638 152.507 144.931 152.247 145.278 152.02C145.625 151.78 146.005 151.593 146.418 151.46C146.831 151.313 147.251 151.24 147.678 151.24C148.625 151.24 149.458 151.473 150.178 151.94C150.911 152.407 151.485 153.053 151.898 153.88C152.325 154.707 152.538 155.647 152.538 156.7C152.538 157.767 152.331 158.713 151.918 159.54C151.505 160.367 150.931 161.02 150.198 161.5C149.478 161.967 148.665 162.2 147.758 162.2ZM147.238 160.04C147.798 160.04 148.298 159.9 148.738 159.62C149.178 159.327 149.525 158.933 149.778 158.44C150.031 157.933 150.158 157.353 150.158 156.7C150.158 156.06 150.031 155.493 149.778 155C149.538 154.507 149.198 154.12 148.758 153.84C148.318 153.56 147.811 153.42 147.238 153.42C146.665 153.42 146.158 153.56 145.718 153.84C145.278 154.12 144.931 154.507 144.678 155C144.425 155.493 144.298 156.06 144.298 156.7C144.298 157.353 144.425 157.933 144.678 158.44C144.931 158.933 145.278 159.327 145.718 159.62C146.158 159.9 146.665 160.04 147.238 160.04ZM154.751 162V147.2H157.231V162H154.751ZM164.866 162.2C163.76 162.2 162.78 161.967 161.926 161.5C161.086 161.033 160.426 160.4 159.946 159.6C159.48 158.787 159.246 157.86 159.246 156.82C159.246 155.993 159.38 155.24 159.646 154.56C159.913 153.88 160.28 153.293 160.746 152.8C161.226 152.293 161.793 151.907 162.446 151.64C163.113 151.36 163.84 151.22 164.626 151.22C165.32 151.22 165.966 151.353 166.566 151.62C167.166 151.887 167.686 152.253 168.126 152.72C168.566 153.173 168.9 153.72 169.126 154.36C169.366 154.987 169.48 155.673 169.466 156.42L169.446 157.28H160.906L160.446 155.6H167.386L167.066 155.94V155.5C167.026 155.087 166.893 154.727 166.666 154.42C166.44 154.1 166.146 153.853 165.786 153.68C165.44 153.493 165.053 153.4 164.626 153.4C163.973 153.4 163.42 153.527 162.966 153.78C162.526 154.033 162.193 154.4 161.966 154.88C161.74 155.347 161.626 155.933 161.626 156.64C161.626 157.32 161.766 157.913 162.046 158.42C162.34 158.927 162.746 159.32 163.266 159.6C163.8 159.867 164.42 160 165.126 160C165.62 160 166.073 159.92 166.486 159.76C166.9 159.6 167.346 159.313 167.826 158.9L169.046 160.6C168.686 160.933 168.273 161.22 167.806 161.46C167.353 161.687 166.873 161.867 166.366 162C165.86 162.133 165.36 162.2 164.866 162.2Z" fill="#181818"/>
</svg>
