<svg width="250" height="167" viewBox="0 0 250 167" fill="none" xmlns="http://www.w3.org/2000/svg">
<rect x="78" width="94" height="94" rx="47" fill="#D8DAFD"/>
<path d="M137.859 54.0222C142.861 60.1518 145.165 65.1752 144.002 67.4216C143.11 69.1261 137.6 72.4562 133.546 73.7318C130.204 74.7816 125.822 75.2331 122.209 74.8832C117.896 74.4655 113.526 72.919 109.777 70.4807C106.627 68.4262 105.915 67.5796 105.915 65.8976C105.915 62.5224 109.63 56.6072 115.987 49.8568C119.601 46.03 124.626 41.5372 125.179 41.6614C126.24 41.8984 134.698 50.139 137.859 54.0222ZM117.388 34.3352C114.034 31.2986 110.827 28.2507 107.632 27.1783C105.915 26.6026 105.791 26.6365 104.391 28.0927C101.094 31.5244 98.3501 37.0896 97.5823 41.9097C96.9725 45.7704 96.8935 46.854 97.108 48.7392C97.7404 54.4399 99.0615 58.3795 101.681 62.3869C102.754 64.035 103.047 64.3398 102.731 63.5045C102.257 62.2627 102.697 59.2713 103.804 56.2799C105.419 51.8774 109.89 43.5352 117.388 34.3352ZM152.572 41.5033C150.664 32.4726 144.95 26.7945 144.149 26.7945C143.324 26.7945 141.416 27.5283 140.084 28.3636C137.453 30.0004 135.454 31.9082 132.823 34.3239C137.611 40.3406 144.363 50.06 146.7 57.1604C147.468 59.4971 147.796 61.7999 147.536 63.0642C147.344 64.0237 147.344 64.0237 147.694 63.5835C148.383 62.7143 149.941 60.0502 150.562 58.673C151.398 56.8443 152.256 54.1351 152.662 52.0467C153.148 49.5068 153.103 44.0545 152.572 41.5033ZM112.047 22.9564C117.433 22.6742 124.434 26.851 124.953 26.9526C125.032 26.9638 126.127 26.4784 127.392 25.8576C134.607 22.3469 138.006 22.9452 139.519 23.0129C132.304 18.5765 122.277 17.3687 113.108 21.6921C110.466 22.9452 110.398 23.0355 112.047 22.9564Z" fill="#3B44F6"/>
<path d="M19.9782 136L25.4382 122H27.8782L33.2982 136H30.5982L27.5982 128.04C27.5315 127.88 27.4382 127.627 27.3182 127.28C27.2115 126.933 27.0915 126.56 26.9582 126.16C26.8249 125.747 26.7049 125.367 26.5982 125.02C26.4915 124.66 26.4115 124.4 26.3582 124.24L26.8582 124.22C26.7782 124.487 26.6849 124.787 26.5782 125.12C26.4715 125.453 26.3582 125.8 26.2382 126.16C26.1182 126.52 25.9982 126.867 25.8782 127.2C25.7715 127.533 25.6715 127.833 25.5782 128.1L22.5782 136H19.9782ZM22.4582 132.8L23.3582 130.54H29.7382L30.6982 132.8H22.4582ZM37.447 136L33.007 125.46H35.687L38.687 133.34L38.167 133.48L41.327 125.46H43.947L39.287 136H37.447ZM49.4337 136.2C48.567 136.2 47.7803 135.96 47.0737 135.48C46.367 135 45.8003 134.347 45.3737 133.52C44.947 132.693 44.7337 131.753 44.7337 130.7C44.7337 129.647 44.947 128.707 45.3737 127.88C45.8003 127.053 46.3803 126.407 47.1137 125.94C47.847 125.473 48.6737 125.24 49.5937 125.24C50.127 125.24 50.6137 125.32 51.0537 125.48C51.4937 125.627 51.8803 125.84 52.2137 126.12C52.547 126.4 52.8203 126.72 53.0337 127.08C53.2603 127.44 53.4137 127.827 53.4937 128.24L52.9537 128.1V125.46H55.4337V136H52.9337V133.48L53.5137 133.38C53.4203 133.74 53.247 134.093 52.9937 134.44C52.7537 134.773 52.447 135.073 52.0737 135.34C51.7137 135.593 51.307 135.8 50.8537 135.96C50.4137 136.12 49.9403 136.2 49.4337 136.2ZM50.1137 134.02C50.687 134.02 51.1937 133.88 51.6337 133.6C52.0737 133.32 52.4137 132.933 52.6537 132.44C52.907 131.933 53.0337 131.353 53.0337 130.7C53.0337 130.06 52.907 129.493 52.6537 129C52.4137 128.507 52.0737 128.12 51.6337 127.84C51.1937 127.56 50.687 127.42 50.1137 127.42C49.5403 127.42 49.0337 127.56 48.5937 127.84C48.167 128.12 47.8337 128.507 47.5937 129C47.3537 129.493 47.2337 130.06 47.2337 130.7C47.2337 131.353 47.3537 131.933 47.5937 132.44C47.8337 132.933 48.167 133.32 48.5937 133.6C49.0337 133.88 49.5403 134.02 50.1137 134.02ZM58.5657 136V125.46H61.0257V136H58.5657ZM59.7657 123.22C59.2724 123.22 58.8857 123.1 58.6057 122.86C58.339 122.607 58.2057 122.253 58.2057 121.8C58.2057 121.373 58.3457 121.027 58.6257 120.76C58.9057 120.493 59.2857 120.36 59.7657 120.36C60.2724 120.36 60.659 120.487 60.9257 120.74C61.2057 120.98 61.3457 121.333 61.3457 121.8C61.3457 122.213 61.2057 122.553 60.9257 122.82C60.6457 123.087 60.259 123.22 59.7657 123.22ZM64.1651 136V121.2H66.6451V136H64.1651ZM73.3204 136.2C72.4537 136.2 71.6671 135.96 70.9604 135.48C70.2537 135 69.6871 134.347 69.2604 133.52C68.8337 132.693 68.6204 131.753 68.6204 130.7C68.6204 129.647 68.8337 128.707 69.2604 127.88C69.6871 127.053 70.2671 126.407 71.0004 125.94C71.7337 125.473 72.5604 125.24 73.4804 125.24C74.0137 125.24 74.5004 125.32 74.9404 125.48C75.3804 125.627 75.7671 125.84 76.1004 126.12C76.4337 126.4 76.7071 126.72 76.9204 127.08C77.1471 127.44 77.3004 127.827 77.3804 128.24L76.8404 128.1V125.46H79.3204V136H76.8204V133.48L77.4004 133.38C77.3071 133.74 77.1337 134.093 76.8804 134.44C76.6404 134.773 76.3337 135.073 75.9604 135.34C75.6004 135.593 75.1937 135.8 74.7404 135.96C74.3004 136.12 73.8271 136.2 73.3204 136.2ZM74.0004 134.02C74.5737 134.02 75.0804 133.88 75.5204 133.6C75.9604 133.32 76.3004 132.933 76.5404 132.44C76.7937 131.933 76.9204 131.353 76.9204 130.7C76.9204 130.06 76.7937 129.493 76.5404 129C76.3004 128.507 75.9604 128.12 75.5204 127.84C75.0804 127.56 74.5737 127.42 74.0004 127.42C73.4271 127.42 72.9204 127.56 72.4804 127.84C72.0537 128.12 71.7204 128.507 71.4804 129C71.2404 129.493 71.1204 130.06 71.1204 130.7C71.1204 131.353 71.2404 131.933 71.4804 132.44C71.7204 132.933 72.0537 133.32 72.4804 133.6C72.9204 133.88 73.4271 134.02 74.0004 134.02ZM87.9924 136.2C87.5258 136.2 87.0658 136.133 86.6124 136C86.1724 135.853 85.7724 135.66 85.4124 135.42C85.0524 135.18 84.7524 134.913 84.5124 134.62C84.2724 134.313 84.1124 134.007 84.0324 133.7L84.6124 133.44L84.5524 135.96H82.1724V121.2H84.6324V127.9L84.1924 127.7C84.2591 127.38 84.4058 127.08 84.6324 126.8C84.8724 126.507 85.1658 126.247 85.5124 126.02C85.8591 125.78 86.2391 125.593 86.6524 125.46C87.0658 125.313 87.4858 125.24 87.9124 125.24C88.8591 125.24 89.6924 125.473 90.4124 125.94C91.1458 126.407 91.7191 127.053 92.1324 127.88C92.5591 128.707 92.7724 129.647 92.7724 130.7C92.7724 131.767 92.5658 132.713 92.1524 133.54C91.7391 134.367 91.1658 135.02 90.4324 135.5C89.7124 135.967 88.8991 136.2 87.9924 136.2ZM87.4724 134.04C88.0324 134.04 88.5324 133.9 88.9724 133.62C89.4124 133.327 89.7591 132.933 90.0124 132.44C90.2658 131.933 90.3924 131.353 90.3924 130.7C90.3924 130.06 90.2658 129.493 90.0124 129C89.7724 128.507 89.4324 128.12 88.9924 127.84C88.5524 127.56 88.0458 127.42 87.4724 127.42C86.8991 127.42 86.3924 127.56 85.9524 127.84C85.5124 128.12 85.1658 128.507 84.9124 129C84.6591 129.493 84.5324 130.06 84.5324 130.7C84.5324 131.353 84.6591 131.933 84.9124 132.44C85.1658 132.933 85.5124 133.327 85.9524 133.62C86.3924 133.9 86.8991 134.04 87.4724 134.04ZM94.9854 136V121.2H97.4654V136H94.9854ZM105.101 136.2C103.994 136.2 103.014 135.967 102.161 135.5C101.321 135.033 100.661 134.4 100.181 133.6C99.714 132.787 99.4807 131.86 99.4807 130.82C99.4807 129.993 99.614 129.24 99.8807 128.56C100.147 127.88 100.514 127.293 100.981 126.8C101.461 126.293 102.027 125.907 102.681 125.64C103.347 125.36 104.074 125.22 104.861 125.22C105.554 125.22 106.201 125.353 106.801 125.62C107.401 125.887 107.921 126.253 108.361 126.72C108.801 127.173 109.134 127.72 109.361 128.36C109.601 128.987 109.714 129.673 109.701 130.42L109.681 131.28H101.141L100.681 129.6H107.621L107.301 129.94V129.5C107.261 129.087 107.127 128.727 106.901 128.42C106.674 128.1 106.381 127.853 106.021 127.68C105.674 127.493 105.287 127.4 104.861 127.4C104.207 127.4 103.654 127.527 103.201 127.78C102.761 128.033 102.427 128.4 102.201 128.88C101.974 129.347 101.861 129.933 101.861 130.64C101.861 131.32 102.001 131.913 102.281 132.42C102.574 132.927 102.981 133.32 103.501 133.6C104.034 133.867 104.654 134 105.361 134C105.854 134 106.307 133.92 106.721 133.76C107.134 133.6 107.581 133.313 108.061 132.9L109.281 134.6C108.921 134.933 108.507 135.22 108.041 135.46C107.587 135.687 107.107 135.867 106.601 136C106.094 136.133 105.594 136.2 105.101 136.2ZM118.718 136V124.52C118.718 123.88 118.858 123.313 119.138 122.82C119.418 122.313 119.805 121.92 120.298 121.64C120.792 121.347 121.365 121.2 122.018 121.2C122.472 121.2 122.892 121.28 123.278 121.44C123.665 121.587 123.992 121.793 124.258 122.06L123.498 123.92C123.325 123.773 123.138 123.66 122.938 123.58C122.752 123.5 122.572 123.46 122.398 123.46C122.132 123.46 121.905 123.507 121.718 123.6C121.545 123.68 121.412 123.807 121.318 123.98C121.238 124.153 121.198 124.36 121.198 124.6V136H119.958C119.718 136 119.492 136 119.278 136C119.078 136 118.892 136 118.718 136ZM117.078 127.84V125.68H123.578V127.84H117.078ZM130.039 136.2C128.986 136.2 128.046 135.967 127.219 135.5C126.393 135.02 125.739 134.367 125.259 133.54C124.779 132.713 124.539 131.773 124.539 130.72C124.539 129.667 124.779 128.727 125.259 127.9C125.739 127.073 126.393 126.427 127.219 125.96C128.046 125.48 128.986 125.24 130.039 125.24C131.079 125.24 132.013 125.48 132.839 125.96C133.666 126.427 134.313 127.073 134.779 127.9C135.259 128.727 135.499 129.667 135.499 130.72C135.499 131.773 135.259 132.713 134.779 133.54C134.313 134.367 133.666 135.02 132.839 135.5C132.013 135.967 131.079 136.2 130.039 136.2ZM130.039 134.02C130.613 134.02 131.119 133.873 131.559 133.58C132.013 133.287 132.366 132.893 132.619 132.4C132.886 131.907 133.013 131.347 132.999 130.72C133.013 130.08 132.886 129.513 132.619 129.02C132.366 128.527 132.013 128.14 131.559 127.86C131.119 127.567 130.613 127.42 130.039 127.42C129.466 127.42 128.946 127.567 128.479 127.86C128.026 128.14 127.673 128.533 127.419 129.04C127.166 129.533 127.039 130.093 127.039 130.72C127.039 131.347 127.166 131.907 127.419 132.4C127.673 132.893 128.026 133.287 128.479 133.58C128.946 133.873 129.466 134.02 130.039 134.02ZM137.7 136V125.46H140.12L140.16 128.82L139.82 128.06C139.966 127.527 140.22 127.047 140.58 126.62C140.94 126.193 141.353 125.86 141.82 125.62C142.3 125.367 142.8 125.24 143.32 125.24C143.546 125.24 143.76 125.26 143.96 125.3C144.173 125.34 144.346 125.387 144.48 125.44L143.82 128.14C143.673 128.06 143.493 127.993 143.28 127.94C143.066 127.887 142.853 127.86 142.64 127.86C142.306 127.86 141.986 127.927 141.68 128.06C141.386 128.18 141.126 128.353 140.9 128.58C140.673 128.807 140.493 129.073 140.36 129.38C140.24 129.673 140.18 130.007 140.18 130.38V136H137.7ZM155.977 136.2C155.11 136.2 154.323 135.96 153.617 135.48C152.91 135 152.343 134.347 151.917 133.52C151.49 132.693 151.277 131.753 151.277 130.7C151.277 129.647 151.49 128.707 151.917 127.88C152.343 127.053 152.923 126.407 153.657 125.94C154.39 125.473 155.217 125.24 156.137 125.24C156.67 125.24 157.157 125.32 157.597 125.48C158.037 125.627 158.423 125.84 158.757 126.12C159.09 126.4 159.363 126.72 159.577 127.08C159.803 127.44 159.957 127.827 160.037 128.24L159.497 128.1V125.46H161.977V136H159.477V133.48L160.057 133.38C159.963 133.74 159.79 134.093 159.537 134.44C159.297 134.773 158.99 135.073 158.617 135.34C158.257 135.593 157.85 135.8 157.397 135.96C156.957 136.12 156.483 136.2 155.977 136.2ZM156.657 134.02C157.23 134.02 157.737 133.88 158.177 133.6C158.617 133.32 158.957 132.933 159.197 132.44C159.45 131.933 159.577 131.353 159.577 130.7C159.577 130.06 159.45 129.493 159.197 129C158.957 128.507 158.617 128.12 158.177 127.84C157.737 127.56 157.23 127.42 156.657 127.42C156.083 127.42 155.577 127.56 155.137 127.84C154.71 128.12 154.377 128.507 154.137 129C153.897 129.493 153.777 130.06 153.777 130.7C153.777 131.353 153.897 131.933 154.137 132.44C154.377 132.933 154.71 133.32 155.137 133.6C155.577 133.88 156.083 134.02 156.657 134.02ZM164.849 136V121.2H167.329V136H164.849ZM170.239 136V121.2H172.719V136H170.239ZM190.349 136L186.009 129.72L180.449 122H183.689L187.929 128.2L193.589 136H190.349ZM180.349 136L185.689 128.38L187.529 129.96L183.389 136H180.349ZM188.249 129.5L186.429 127.98L190.349 122H193.389L188.249 129.5ZM201.156 136.2C200.69 136.2 200.23 136.133 199.776 136C199.336 135.853 198.936 135.66 198.576 135.42C198.216 135.18 197.916 134.913 197.676 134.62C197.436 134.313 197.276 134.007 197.196 133.7L197.776 133.44L197.716 135.96H195.336V121.2H197.796V127.9L197.356 127.7C197.423 127.38 197.57 127.08 197.796 126.8C198.036 126.507 198.33 126.247 198.676 126.02C199.023 125.78 199.403 125.593 199.816 125.46C200.23 125.313 200.65 125.24 201.076 125.24C202.023 125.24 202.856 125.473 203.576 125.94C204.31 126.407 204.883 127.053 205.296 127.88C205.723 128.707 205.936 129.647 205.936 130.7C205.936 131.767 205.73 132.713 205.316 133.54C204.903 134.367 204.33 135.02 203.596 135.5C202.876 135.967 202.063 136.2 201.156 136.2ZM200.636 134.04C201.196 134.04 201.696 133.9 202.136 133.62C202.576 133.327 202.923 132.933 203.176 132.44C203.43 131.933 203.556 131.353 203.556 130.7C203.556 130.06 203.43 129.493 203.176 129C202.936 128.507 202.596 128.12 202.156 127.84C201.716 127.56 201.21 127.42 200.636 127.42C200.063 127.42 199.556 127.56 199.116 127.84C198.676 128.12 198.33 128.507 198.076 129C197.823 129.493 197.696 130.06 197.696 130.7C197.696 131.353 197.823 131.933 198.076 132.44C198.33 132.933 198.676 133.327 199.116 133.62C199.556 133.9 200.063 134.04 200.636 134.04ZM212.949 136.2C211.896 136.2 210.956 135.967 210.129 135.5C209.303 135.02 208.649 134.367 208.169 133.54C207.689 132.713 207.449 131.773 207.449 130.72C207.449 129.667 207.689 128.727 208.169 127.9C208.649 127.073 209.303 126.427 210.129 125.96C210.956 125.48 211.896 125.24 212.949 125.24C213.989 125.24 214.923 125.48 215.749 125.96C216.576 126.427 217.223 127.073 217.689 127.9C218.169 128.727 218.409 129.667 218.409 130.72C218.409 131.773 218.169 132.713 217.689 133.54C217.223 134.367 216.576 135.02 215.749 135.5C214.923 135.967 213.989 136.2 212.949 136.2ZM212.949 134.02C213.523 134.02 214.029 133.873 214.469 133.58C214.923 133.287 215.276 132.893 215.529 132.4C215.796 131.907 215.923 131.347 215.909 130.72C215.923 130.08 215.796 129.513 215.529 129.02C215.276 128.527 214.923 128.14 214.469 127.86C214.029 127.567 213.523 127.42 212.949 127.42C212.376 127.42 211.856 127.567 211.389 127.86C210.936 128.14 210.583 128.533 210.329 129.04C210.076 129.533 209.949 130.093 209.949 130.72C209.949 131.347 210.076 131.907 210.329 132.4C210.583 132.893 210.936 133.287 211.389 133.58C211.856 133.873 212.376 134.02 212.949 134.02ZM227.039 136L224.039 131.94L223.479 131.18L219.139 125.46H222.179L225.099 129.42L225.719 130.26L230.019 136H227.039ZM219.119 136L223.299 130.4L224.699 132.08L222.019 136H219.119ZM225.719 131.08L224.379 129.42L226.799 125.46H229.699L225.719 131.08ZM88.8311 162.2C87.8444 162.2 86.9578 161.96 86.1711 161.48C85.3844 161 84.7644 160.347 84.3111 159.52C83.8578 158.693 83.6311 157.76 83.6311 156.72C83.6311 155.68 83.8578 154.747 84.3111 153.92C84.7644 153.093 85.3844 152.44 86.1711 151.96C86.9578 151.48 87.8444 151.24 88.8311 151.24C89.7778 151.24 90.6378 151.42 91.4111 151.78C92.1844 152.14 92.7844 152.64 93.2111 153.28L91.8511 154.92C91.6511 154.64 91.3978 154.387 91.0911 154.16C90.7844 153.933 90.4578 153.753 90.1111 153.62C89.7644 153.487 89.4178 153.42 89.0711 153.42C88.4844 153.42 87.9578 153.567 87.4911 153.86C87.0378 154.14 86.6778 154.533 86.4111 155.04C86.1444 155.533 86.0111 156.093 86.0111 156.72C86.0111 157.347 86.1444 157.907 86.4111 158.4C86.6911 158.893 87.0644 159.287 87.5311 159.58C87.9978 159.873 88.5178 160.02 89.0911 160.02C89.4378 160.02 89.7711 159.967 90.0911 159.86C90.4244 159.74 90.7378 159.573 91.0311 159.36C91.3244 159.147 91.5978 158.88 91.8511 158.56L93.2111 160.22C92.7578 160.807 92.1311 161.287 91.3311 161.66C90.5444 162.02 89.7111 162.2 88.8311 162.2ZM99.9123 162.2C98.859 162.2 97.919 161.967 97.0923 161.5C96.2657 161.02 95.6123 160.367 95.1323 159.54C94.6523 158.713 94.4123 157.773 94.4123 156.72C94.4123 155.667 94.6523 154.727 95.1323 153.9C95.6123 153.073 96.2657 152.427 97.0923 151.96C97.919 151.48 98.859 151.24 99.9123 151.24C100.952 151.24 101.886 151.48 102.712 151.96C103.539 152.427 104.186 153.073 104.652 153.9C105.132 154.727 105.372 155.667 105.372 156.72C105.372 157.773 105.132 158.713 104.652 159.54C104.186 160.367 103.539 161.02 102.712 161.5C101.886 161.967 100.952 162.2 99.9123 162.2ZM99.9123 160.02C100.486 160.02 100.992 159.873 101.432 159.58C101.886 159.287 102.239 158.893 102.492 158.4C102.759 157.907 102.886 157.347 102.872 156.72C102.886 156.08 102.759 155.513 102.492 155.02C102.239 154.527 101.886 154.14 101.432 153.86C100.992 153.567 100.486 153.42 99.9123 153.42C99.339 153.42 98.819 153.567 98.3523 153.86C97.899 154.14 97.5457 154.533 97.2923 155.04C97.039 155.533 96.9123 156.093 96.9123 156.72C96.9123 157.347 97.039 157.907 97.2923 158.4C97.5457 158.893 97.899 159.287 98.3523 159.58C98.819 159.873 99.339 160.02 99.9123 160.02ZM107.573 162V151.46H109.973L110.013 153.62L109.553 153.86C109.686 153.38 109.946 152.947 110.333 152.56C110.719 152.16 111.179 151.84 111.713 151.6C112.246 151.36 112.793 151.24 113.353 151.24C114.153 151.24 114.819 151.4 115.353 151.72C115.899 152.04 116.306 152.52 116.573 153.16C116.853 153.8 116.993 154.6 116.993 155.56V162H114.533V155.74C114.533 155.207 114.459 154.767 114.313 154.42C114.166 154.06 113.939 153.8 113.633 153.64C113.326 153.467 112.953 153.387 112.513 153.4C112.153 153.4 111.819 153.46 111.513 153.58C111.219 153.687 110.959 153.847 110.733 154.06C110.519 154.26 110.346 154.493 110.213 154.76C110.093 155.027 110.033 155.32 110.033 155.64V162H108.813C108.573 162 108.346 162 108.133 162C107.933 162 107.746 162 107.573 162ZM123.28 162.2C122.347 162.2 121.507 162.047 120.76 161.74C120.027 161.42 119.427 160.967 118.96 160.38L120.56 159C120.96 159.453 121.407 159.78 121.9 159.98C122.394 160.18 122.914 160.28 123.46 160.28C123.687 160.28 123.887 160.253 124.06 160.2C124.247 160.147 124.407 160.067 124.54 159.96C124.674 159.853 124.774 159.733 124.84 159.6C124.92 159.453 124.96 159.293 124.96 159.12C124.96 158.8 124.84 158.547 124.6 158.36C124.467 158.267 124.254 158.167 123.96 158.06C123.68 157.953 123.314 157.847 122.86 157.74C122.14 157.553 121.54 157.34 121.06 157.1C120.58 156.847 120.207 156.567 119.94 156.26C119.714 156.007 119.54 155.72 119.42 155.4C119.314 155.08 119.26 154.733 119.26 154.36C119.26 153.893 119.36 153.473 119.56 153.1C119.774 152.713 120.06 152.38 120.42 152.1C120.78 151.82 121.2 151.607 121.68 151.46C122.16 151.313 122.66 151.24 123.18 151.24C123.714 151.24 124.227 151.307 124.72 151.44C125.227 151.573 125.694 151.767 126.12 152.02C126.56 152.26 126.934 152.553 127.24 152.9L125.88 154.4C125.627 154.16 125.347 153.947 125.04 153.76C124.747 153.573 124.447 153.427 124.14 153.32C123.834 153.2 123.547 153.14 123.28 153.14C123.027 153.14 122.8 153.167 122.6 153.22C122.4 153.26 122.234 153.327 122.1 153.42C121.967 153.513 121.86 153.633 121.78 153.78C121.714 153.913 121.68 154.073 121.68 154.26C121.694 154.42 121.734 154.573 121.8 154.72C121.88 154.853 121.987 154.967 122.12 155.06C122.267 155.153 122.487 155.26 122.78 155.38C123.074 155.5 123.454 155.613 123.92 155.72C124.574 155.893 125.12 156.087 125.56 156.3C126 156.513 126.347 156.76 126.6 157.04C126.854 157.28 127.034 157.56 127.14 157.88C127.247 158.2 127.3 158.553 127.3 158.94C127.3 159.567 127.12 160.127 126.76 160.62C126.414 161.113 125.934 161.5 125.32 161.78C124.72 162.06 124.04 162.2 123.28 162.2ZM134.287 162.2C133.234 162.2 132.294 161.967 131.467 161.5C130.641 161.02 129.987 160.367 129.507 159.54C129.027 158.713 128.787 157.773 128.787 156.72C128.787 155.667 129.027 154.727 129.507 153.9C129.987 153.073 130.641 152.427 131.467 151.96C132.294 151.48 133.234 151.24 134.287 151.24C135.327 151.24 136.261 151.48 137.087 151.96C137.914 152.427 138.561 153.073 139.027 153.9C139.507 154.727 139.747 155.667 139.747 156.72C139.747 157.773 139.507 158.713 139.027 159.54C138.561 160.367 137.914 161.02 137.087 161.5C136.261 161.967 135.327 162.2 134.287 162.2ZM134.287 160.02C134.861 160.02 135.367 159.873 135.807 159.58C136.261 159.287 136.614 158.893 136.867 158.4C137.134 157.907 137.261 157.347 137.247 156.72C137.261 156.08 137.134 155.513 136.867 155.02C136.614 154.527 136.261 154.14 135.807 153.86C135.367 153.567 134.861 153.42 134.287 153.42C133.714 153.42 133.194 153.567 132.727 153.86C132.274 154.14 131.921 154.533 131.667 155.04C131.414 155.533 131.287 156.093 131.287 156.72C131.287 157.347 131.414 157.907 131.667 158.4C131.921 158.893 132.274 159.287 132.727 159.58C133.194 159.873 133.714 160.02 134.287 160.02ZM141.968 162V147.2H144.448V162H141.968ZM152.083 162.2C150.976 162.2 149.996 161.967 149.143 161.5C148.303 161.033 147.643 160.4 147.163 159.6C146.696 158.787 146.463 157.86 146.463 156.82C146.463 155.993 146.596 155.24 146.863 154.56C147.13 153.88 147.496 153.293 147.963 152.8C148.443 152.293 149.01 151.907 149.663 151.64C150.33 151.36 151.056 151.22 151.843 151.22C152.536 151.22 153.183 151.353 153.783 151.62C154.383 151.887 154.903 152.253 155.343 152.72C155.783 153.173 156.116 153.72 156.343 154.36C156.583 154.987 156.696 155.673 156.683 156.42L156.663 157.28H148.123L147.663 155.6H154.603L154.283 155.94V155.5C154.243 155.087 154.11 154.727 153.883 154.42C153.656 154.1 153.363 153.853 153.003 153.68C152.656 153.493 152.27 153.4 151.843 153.4C151.19 153.4 150.636 153.527 150.183 153.78C149.743 154.033 149.41 154.4 149.183 154.88C148.956 155.347 148.843 155.933 148.843 156.64C148.843 157.32 148.983 157.913 149.263 158.42C149.556 158.927 149.963 159.32 150.483 159.6C151.016 159.867 151.636 160 152.343 160C152.836 160 153.29 159.92 153.703 159.76C154.116 159.6 154.563 159.313 155.043 158.9L156.263 160.6C155.903 160.933 155.49 161.22 155.023 161.46C154.57 161.687 154.09 161.867 153.583 162C153.076 162.133 152.576 162.2 152.083 162.2ZM162.382 162.2C161.449 162.2 160.609 162.047 159.862 161.74C159.129 161.42 158.529 160.967 158.062 160.38L159.662 159C160.062 159.453 160.509 159.78 161.002 159.98C161.495 160.18 162.015 160.28 162.562 160.28C162.789 160.28 162.989 160.253 163.162 160.2C163.349 160.147 163.509 160.067 163.642 159.96C163.775 159.853 163.875 159.733 163.942 159.6C164.022 159.453 164.062 159.293 164.062 159.12C164.062 158.8 163.942 158.547 163.702 158.36C163.569 158.267 163.355 158.167 163.062 158.06C162.782 157.953 162.415 157.847 161.962 157.74C161.242 157.553 160.642 157.34 160.162 157.1C159.682 156.847 159.309 156.567 159.042 156.26C158.815 156.007 158.642 155.72 158.522 155.4C158.415 155.08 158.362 154.733 158.362 154.36C158.362 153.893 158.462 153.473 158.662 153.1C158.875 152.713 159.162 152.38 159.522 152.1C159.882 151.82 160.302 151.607 160.782 151.46C161.262 151.313 161.762 151.24 162.282 151.24C162.815 151.24 163.329 151.307 163.822 151.44C164.329 151.573 164.795 151.767 165.222 152.02C165.662 152.26 166.035 152.553 166.342 152.9L164.982 154.4C164.729 154.16 164.449 153.947 164.142 153.76C163.849 153.573 163.549 153.427 163.242 153.32C162.935 153.2 162.649 153.14 162.382 153.14C162.129 153.14 161.902 153.167 161.702 153.22C161.502 153.26 161.335 153.327 161.202 153.42C161.069 153.513 160.962 153.633 160.882 153.78C160.815 153.913 160.782 154.073 160.782 154.26C160.795 154.42 160.835 154.573 160.902 154.72C160.982 154.853 161.089 154.967 161.222 155.06C161.369 155.153 161.589 155.26 161.882 155.38C162.175 155.5 162.555 155.613 163.022 155.72C163.675 155.893 164.222 156.087 164.662 156.3C165.102 156.513 165.449 156.76 165.702 157.04C165.955 157.28 166.135 157.56 166.242 157.88C166.349 158.2 166.402 158.553 166.402 158.94C166.402 159.567 166.222 160.127 165.862 160.62C165.515 161.113 165.035 161.5 164.422 161.78C163.822 162.06 163.142 162.2 162.382 162.2Z" fill="#181818"/>
</svg>
